<svg width="32" height="25" viewBox="0 0 32 25" fill="none" xmlns="http://www.w3.org/2000/svg">
  <mask id="mask0_4_111" style="mask-type:luminance" maskUnits="userSpaceOnUse" x="0" y="0"
    width="32" height="25">
    <rect x="0.156158" width="31.2536" height="24.2711" fill="white" />
  </mask>
  <g mask="url(#mask0_4_111)">
    <path fill-rule="evenodd" clip-rule="evenodd"
      d="M29.878 22.8654V20.5628H29.3152V21.9015C29.1276 21.6606 28.8596 21.5267 28.5111 21.5267C27.7875 21.5267 27.2247 22.0889 27.2247 22.8654C27.2247 23.6419 27.7875 24.2041 28.5111 24.2041C28.8863 24.2041 29.1543 24.0703 29.3152 23.8293V24.1506H29.878V22.8654ZM13.2616 21.5802H14.1728V22.0889H13.2616V23.2402C13.2616 23.508 13.3688 23.6686 13.6368 23.6686C13.7708 23.6686 13.9584 23.6419 14.1192 23.5348L14.28 24.0167C14.0924 24.1238 13.8244 24.2041 13.5832 24.2041C12.94 24.2041 12.6988 23.8561 12.6988 23.267V22.0889H12.1896V21.5802H12.6988V20.8038H13.2616V21.5802ZM5.83786 22.5441V24.1506H5.22145V22.7315C5.22145 22.3031 5.03384 22.0622 4.65863 22.0622C4.31023 22.0622 4.04222 22.2764 4.04222 22.7315V24.1506H3.47941V22.7315C3.47941 22.3031 3.2918 22.0622 2.9166 22.0622C2.54138 22.0622 2.30018 22.2764 2.30018 22.7315V24.1506H1.73737V21.5802H2.30018V21.9015C2.51458 21.607 2.78259 21.5267 3.0506 21.5267C3.45261 21.5267 3.72061 21.6873 3.90822 21.9819C4.14942 21.6338 4.49783 21.5267 4.81944 21.5267C5.46265 21.5267 5.83786 21.9283 5.83786 22.5441ZM18.9434 21.5267C18.6218 21.5267 18.4073 21.6873 18.2733 21.9015V21.5802H17.7105V24.1506H18.2733V22.7048C18.2733 22.2764 18.4609 22.0354 18.8093 22.0354C18.9165 22.0354 19.0505 22.0622 19.1578 22.0889L19.3185 21.5535C19.2114 21.5267 19.0505 21.5267 18.9434 21.5267ZM10.6888 21.5267C11.0908 21.5267 11.466 21.607 11.734 21.7944L11.4928 22.2496C11.332 22.1693 11.0104 22.0354 10.6888 22.0354C10.394 22.0354 10.2063 22.1425 10.2063 22.3299C10.2063 22.4906 10.394 22.5441 10.6352 22.5709L10.9032 22.5977C11.4392 22.678 11.7876 22.919 11.7876 23.3741C11.7876 23.8561 11.3588 24.2041 10.6084 24.2041C10.2063 24.2041 9.80434 24.097 9.50954 23.8828L9.77754 23.4544C9.96515 23.5883 10.2599 23.7222 10.6352 23.7222C11.0104 23.7222 11.2248 23.5883 11.2248 23.4009C11.2248 23.267 11.064 23.1867 10.7692 23.1332L10.5012 23.1064C9.93835 23.0261 9.61674 22.7851 9.61674 22.3567C9.61674 21.848 10.0455 21.5267 10.6888 21.5267ZM26.6887 21.5267C26.3671 21.5267 26.1527 21.6873 26.0187 21.9015V21.5802H25.4559V24.1506H26.0187V22.7048C26.0187 22.2764 26.2062 22.0354 26.5547 22.0354C26.6619 22.0354 26.7959 22.0622 26.9031 22.0889L27.0639 21.5535C26.9567 21.5267 26.7959 21.5267 26.6887 21.5267ZM20.873 24.2041C20.0421 24.2041 19.5061 23.6419 19.5061 22.8654C19.5061 22.0889 20.0421 21.5267 20.873 21.5267C21.2481 21.5267 21.5161 21.607 21.7842 21.8212L21.5161 22.2764C21.3018 22.1157 21.0874 22.0354 20.8461 22.0354C20.3905 22.0622 20.069 22.3835 20.069 22.8654C20.069 23.3741 20.3905 23.6954 20.8461 23.6954C21.0874 23.6954 21.3018 23.6151 21.5161 23.4544L21.7842 23.9096C21.5161 24.1238 21.2481 24.2041 20.873 24.2041ZM24.7055 22.8654V21.5802H24.1426V21.9015C23.955 21.6606 23.687 21.5267 23.3386 21.5267C22.615 21.5267 22.0522 22.0889 22.0522 22.8654C22.0522 23.6419 22.615 24.2041 23.3386 24.2041C23.7139 24.2041 23.9819 24.0703 24.1426 23.8293V24.1506H24.7055V22.8654ZM23.419 22.0354C22.9366 22.0354 22.6418 22.4102 22.6418 22.8654C22.6418 23.3206 22.9366 23.6686 23.419 23.6954C23.8746 23.6954 24.1962 23.3206 24.1962 22.8654C24.1962 22.3835 23.8746 22.0354 23.419 22.0354ZM15.9149 21.5267C15.1644 21.5267 14.6284 22.0622 14.6284 22.8654C14.6284 23.6686 15.1644 24.2041 15.9417 24.2041C16.3169 24.2041 16.692 24.097 16.9869 23.8561L16.7189 23.4544C16.5045 23.6151 16.2365 23.7222 15.9684 23.7222C15.62 23.7222 15.2717 23.5615 15.1913 23.1064H17.0941V22.8922C17.1209 22.0622 16.6385 21.5267 15.9149 21.5267ZM16.558 22.6244C16.5045 22.2228 16.2633 22.0086 15.9149 22.0086C15.5129 22.0086 15.2717 22.2764 15.218 22.6244H16.558ZM28.5916 22.0354C28.1091 22.0354 27.8144 22.4102 27.8144 22.8654C27.8144 23.3206 28.1091 23.6686 28.5916 23.6954C29.0471 23.6954 29.3687 23.3206 29.3687 22.8654C29.3687 22.3835 29.0471 22.0354 28.5916 22.0354ZM9.00033 22.8654V21.5802H8.43751V21.9015C8.24991 21.6606 7.9819 21.5267 7.6335 21.5267C6.90988 21.5267 6.34707 22.0889 6.34707 22.8654C6.34707 23.6419 6.90988 24.2041 7.6335 24.2041C8.00871 24.2041 8.27671 24.0703 8.43751 23.8293V24.1506H9.00033V22.8654ZM7.6871 22.0354C7.20469 22.0354 6.90988 22.4102 6.90988 22.8654C6.90988 23.3206 7.20469 23.6686 7.6871 23.6954C8.14271 23.6954 8.46431 23.3206 8.46431 22.8654C8.46431 22.3835 8.14271 22.0354 7.6871 22.0354Z"
      fill="white" />
    <path d="M19.9885 2.06174H11.5464V17.216H19.9885V2.06174V2.06174Z" fill="#FF5F00" />
    <path
      d="M12.0825 9.6388C12.0825 6.55974 13.5296 3.82875 15.7541 2.06163C14.1192 0.776459 12.0556 0 9.80437 0C4.47105 0 0.156158 4.31069 0.156158 9.6388C0.156158 14.9669 4.47105 19.2776 9.80437 19.2776C12.0556 19.2776 14.1192 18.5011 15.7541 17.216C13.5296 15.4756 12.0825 12.7179 12.0825 9.6388V9.6388Z"
      fill="#EB001B" />
    <path
      d="M31.3788 9.6388C31.3788 14.9669 27.064 19.2776 21.7306 19.2776C19.4794 19.2776 17.4158 18.5011 15.7809 17.216C18.0322 15.4489 19.4526 12.7179 19.4526 9.6388C19.4526 6.55974 18.0054 3.82875 15.7809 2.06163C17.4158 0.776459 19.4794 0 21.7306 0C27.064 0 31.3788 4.33746 31.3788 9.6388V9.6388Z"
      fill="#F79E1B" />
  </g>
</svg>
  