<svg width="32" height="25" viewBox="0 0 32 25" fill="none" xmlns="http://www.w3.org/2000/svg">
  <path fill-rule="evenodd" clip-rule="evenodd"
    d="M30.4316 23.552V21.1803H29.8554V22.5592C29.6633 22.311 29.3889 22.1731 29.0322 22.1731C28.2913 22.1731 27.715 22.7523 27.715 23.552C27.715 24.3518 28.2913 24.931 29.0322 24.931C29.4163 24.931 29.6907 24.7931 29.8554 24.5449V24.8758H30.4316V23.552ZM13.4185 22.2283H14.3514V22.7523H13.4185V23.9381C13.4185 24.2139 13.5282 24.3794 13.8026 24.3794C13.9398 24.3794 14.1319 24.3518 14.2966 24.2415L14.4612 24.7379C14.2691 24.8482 13.9947 24.931 13.7477 24.931C13.0892 24.931 12.8422 24.5724 12.8422 23.9657V22.7523H12.3208V22.2283H12.8422V21.4285H13.4185V22.2283ZM5.81746 23.2211V24.8758H5.18633V23.4142C5.18633 22.9729 4.99424 22.7247 4.61007 22.7247C4.25335 22.7247 3.97894 22.9453 3.97894 23.4142V24.8758H3.40269V23.4142C3.40269 22.9729 3.2106 22.7247 2.82644 22.7247C2.44227 22.7247 2.1953 22.9453 2.1953 23.4142V24.8758H1.61905V22.2283H2.1953V22.5592C2.41483 22.2559 2.68923 22.1731 2.96364 22.1731C3.37525 22.1731 3.64965 22.3386 3.84174 22.642C4.0887 22.2834 4.44543 22.1731 4.77472 22.1731C5.43329 22.1731 5.81746 22.5868 5.81746 23.2211ZM19.2359 22.1731C18.9066 22.1731 18.687 22.3386 18.5498 22.5592V22.2283H17.9736V24.8758H18.5498V23.3866C18.5498 22.9453 18.7419 22.6971 19.0987 22.6971C19.2084 22.6971 19.3456 22.7247 19.4554 22.7523L19.62 22.2007C19.5103 22.1731 19.3456 22.1731 19.2359 22.1731ZM10.7842 22.1731C11.1958 22.1731 11.58 22.2559 11.8543 22.4489L11.6074 22.9177C11.4428 22.835 11.1135 22.6971 10.7842 22.6971C10.4824 22.6971 10.2903 22.8074 10.2903 23.0005C10.2903 23.1659 10.4824 23.2211 10.7293 23.2487L11.0037 23.2763C11.5525 23.359 11.9092 23.6072 11.9092 24.076C11.9092 24.5724 11.4702 24.931 10.7019 24.931C10.2903 24.931 9.87867 24.8207 9.57682 24.6L9.85123 24.1588C10.0433 24.2967 10.3452 24.4346 10.7293 24.4346C11.1135 24.4346 11.333 24.2967 11.333 24.1036C11.333 23.9657 11.1684 23.883 10.8665 23.8278L10.5921 23.8002C10.0159 23.7175 9.68658 23.4693 9.68658 23.0281C9.68658 22.5041 10.1256 22.1731 10.7842 22.1731ZM27.1662 22.1731C26.8369 22.1731 26.6174 22.3386 26.4802 22.5592V22.2283H25.9039V24.8758H26.4802V23.3866C26.4802 22.9453 26.6723 22.6971 27.029 22.6971C27.1388 22.6971 27.276 22.7247 27.3857 22.7523L27.5504 22.2007C27.4406 22.1731 27.276 22.1731 27.1662 22.1731ZM21.2116 24.931C20.3609 24.931 19.8121 24.3518 19.8121 23.552C19.8121 22.7523 20.3609 22.1731 21.2116 22.1731C21.5958 22.1731 21.8702 22.2559 22.1446 22.4765L21.8702 22.9453C21.6507 22.7798 21.4311 22.6971 21.1841 22.6971C20.7177 22.7247 20.3884 23.0556 20.3884 23.552C20.3884 24.076 20.7177 24.407 21.1841 24.407C21.4311 24.407 21.6507 24.3242 21.8702 24.1588L22.1446 24.6276C21.8702 24.8482 21.5958 24.931 21.2116 24.931ZM25.1356 23.552V22.2283H24.5593V22.5592C24.3673 22.311 24.0928 22.1731 23.7361 22.1731C22.9952 22.1731 22.419 22.7523 22.419 23.552C22.419 24.3518 22.9952 24.931 23.7361 24.931C24.1203 24.931 24.3947 24.7931 24.5593 24.5449V24.8758H25.1356V23.552ZM23.8184 22.6971C23.3245 22.6971 23.0227 23.0832 23.0227 23.552C23.0227 24.0209 23.3245 24.3794 23.8184 24.407C24.2849 24.407 24.6142 24.0209 24.6142 23.552C24.6142 23.0556 24.2849 22.6971 23.8184 22.6971ZM16.1351 22.1731C15.3667 22.1731 14.8179 22.7247 14.8179 23.552C14.8179 24.3794 15.3667 24.931 16.1625 24.931C16.5467 24.931 16.9308 24.8207 17.2327 24.5724L16.9583 24.1588C16.7388 24.3242 16.4644 24.4346 16.19 24.4346C15.8332 24.4346 15.4765 24.2691 15.3942 23.8002H17.3425V23.5796C17.3699 22.7247 16.876 22.1731 16.1351 22.1731ZM16.7936 23.3038C16.7388 22.8902 16.4918 22.6695 16.1351 22.6695C15.7235 22.6695 15.4765 22.9453 15.4216 23.3038H16.7936ZM29.1145 22.6971C28.6205 22.6971 28.3187 23.0832 28.3187 23.552C28.3187 24.0209 28.6205 24.3794 29.1145 24.407C29.581 24.407 29.9103 24.0209 29.9103 23.552C29.9103 23.0556 29.581 22.6971 29.1145 22.6971ZM9.05545 23.552V22.2283H8.4792V22.5592C8.28711 22.311 8.01271 22.1731 7.65598 22.1731C6.91508 22.1731 6.33883 22.7523 6.33883 23.552C6.33883 24.3518 6.91508 24.931 7.65598 24.931C8.04015 24.931 8.31456 24.7931 8.4792 24.5449V24.8758H9.05545V23.552ZM7.71086 22.6971C7.21693 22.6971 6.91508 23.0832 6.91508 23.552C6.91508 24.0209 7.21693 24.3794 7.71086 24.407C8.17735 24.407 8.50664 24.0209 8.50664 23.552C8.50664 23.0556 8.17735 22.6971 7.71086 22.6971Z"
    fill="#242424" />
  <path d="M20.306 2.12366H11.6622V17.7331H20.306V2.12366V2.12366Z" fill="#828282" />
  <path
    d="M12.2111 9.92826C12.2111 6.75673 13.6929 3.94372 15.9704 2.12354C14.2965 0.799776 12.1836 0 9.87861 0C4.41794 0 0 4.44014 0 9.92826C0 15.4164 4.41794 19.8565 9.87861 19.8565C12.1836 19.8565 14.2965 19.0567 15.9704 17.733C13.6929 15.9404 12.2111 13.0998 12.2111 9.92826V9.92826Z"
    fill="#242424" />
  <path
    d="M31.9683 9.92826C31.9683 15.4164 27.5504 19.8565 22.0897 19.8565C19.7847 19.8565 17.6718 19.0567 15.9979 17.733C18.3029 15.9128 19.7573 13.0998 19.7573 9.92826C19.7573 6.75673 18.2755 3.94372 15.9979 2.12354C17.6718 0.799776 19.7847 0 22.0897 0C27.5504 0 31.9683 4.46772 31.9683 9.92826V9.92826Z"
    fill="#BDBDBD" />
</svg>
  