<svg width="269" height="255" viewBox="0 0 269 255" fill="none" xmlns="http://www.w3.org/2000/svg">
  <path
    d="M124.068 0.0181746C75.9748 -0.715348 39.8125 20.9541 32.465 28.9006C30.1271 32.1098 22.8722 40.8204 27.0301 55.4908C31.7712 72.2192 37.3608 72.912 22.9828 88.9578C6.85412 106.957 -15.127 141.68 14.9311 185.233C44.9892 228.786 118.832 232.096 157.783 229.244C195.355 226.493 241.614 208.521 259.479 186.15C278.516 162.31 264.969 124.687 253.392 106.837C241.795 88.9578 267.996 52.7401 244.45 33.0267C220.905 13.3133 184.184 0.935078 124.068 0.0181746Z"
    fill="#F9F9F9" />
  <path fill-rule="evenodd" clip-rule="evenodd"
    d="M130.221 141.715C130.552 141.68 130.872 141.645 131.186 141.612C132.116 141.512 132.979 141.42 133.834 141.32C137.044 140.939 140.255 140.917 143.472 141.14C148.004 141.462 152.484 142.171 156.911 143.179C156.975 143.194 157.04 143.207 157.106 143.22L157.106 143.22C157.171 143.233 157.236 143.246 157.299 143.261C157.62 143.35 157.769 143.223 157.859 142.902C158.036 142.284 158.237 141.673 158.439 141.061L158.439 141.061L158.439 141.06C158.51 140.845 158.581 140.631 158.65 140.416C160.898 133.533 165.459 128.792 171.999 125.813C176.24 123.88 180.66 123.245 185.266 123.559C186.132 123.618 186.983 123.738 187.879 123.917C187.911 123.586 187.945 123.259 187.979 122.934L187.979 122.934L187.979 122.933C188.056 122.195 188.131 121.47 188.178 120.744C188.469 116.257 189.723 112.039 191.649 108C192.112 107.022 192.545 106.036 192.918 105.014C194.157 101.587 194.076 98.175 192.739 94.8154C191.933 92.7922 190.522 91.1796 188.961 89.7013C186.416 87.2973 183.28 86.0207 180.01 85.0128C177.3 84.1766 174.508 83.7809 171.708 83.445C171.305 83.3972 170.902 83.349 170.499 83.3008C168.259 83.0331 166.018 82.7653 163.772 82.5565C161.696 82.3624 159.613 82.2355 157.538 82.1758C152.79 82.0339 148.042 82.0339 143.293 82.1832C140.046 82.2803 136.806 82.5117 133.67 83.43C131.281 84.1318 128.966 85.0352 127.093 86.7523C123.725 89.8207 122.061 93.6358 122.158 98.2123C122.232 101.736 123.136 105.088 124.211 108.411C124.413 109.042 124.628 109.669 124.842 110.297L124.842 110.297L124.842 110.297L124.842 110.297L124.842 110.297L124.842 110.297C125.377 111.864 125.912 113.429 126.264 115.055C126.607 116.653 126.921 118.258 127.003 119.893C127.018 120.154 127.018 120.423 126.995 120.684C126.966 121.043 126.772 121.274 126.398 121.311C126.032 121.349 125.756 121.147 125.689 120.729C125.641 120.416 125.611 120.1 125.581 119.785C125.551 119.47 125.521 119.154 125.472 118.84C125.054 116.093 124.323 113.428 123.397 110.814C122.322 107.776 121.396 104.7 120.888 101.512C120.164 96.9805 120.717 92.6802 123.307 88.7681C124.935 86.3044 127.078 84.4752 129.765 83.2359C132.781 81.8473 135.954 81.1604 139.239 80.8991C145.585 80.3915 151.946 80.4885 158.299 80.6826C164.212 80.8618 170.073 81.6233 175.919 82.4893C179.301 82.9895 182.541 84.0348 185.609 85.5354C188.715 87.0584 191.209 89.3056 193.09 92.1874C194.911 94.9796 195.524 98.1003 195.285 101.408C195.135 103.573 194.449 105.581 193.568 107.544C193.257 108.234 192.955 108.93 192.653 109.625L192.652 109.627L192.651 109.628L192.651 109.629L192.651 109.63L192.65 109.63C192.459 110.07 192.268 110.51 192.075 110.949C190.604 114.249 189.992 117.735 189.686 121.304C189.652 121.698 189.625 122.094 189.599 122.491L189.599 122.491L189.599 122.492L189.599 122.492L189.599 122.493L189.599 122.493C189.568 122.966 189.536 123.439 189.492 123.909C189.454 124.313 189.589 124.529 189.977 124.678C190.813 124.999 191.582 125.47 192.336 125.955C194.949 127.635 197.166 131.719 195.449 136.026C194.822 137.609 193.911 139.028 192.762 140.289C192.508 140.573 192.358 140.879 192.239 141.238C191.634 143.056 191.019 144.871 190.405 146.685L190.404 146.686L190.404 146.689L190.4 146.699C189.976 147.95 189.553 149.2 189.133 150.45C188.852 151.29 188.567 152.128 188.282 152.966L188.281 152.969C187.056 156.574 185.832 160.177 184.863 163.859C184.176 166.487 183.586 169.137 183.071 171.802C182.541 174.565 182.668 177.297 183.235 180.045C183.825 182.912 184.288 185.801 184.445 188.735C184.482 189.497 184.482 190.266 184.288 191.02C184.071 191.848 183.72 192.587 182.802 192.789C181.876 192.998 181.167 192.535 180.585 191.863C180.152 191.356 179.876 190.758 179.659 190.131C179.056 188.422 178.73 186.653 178.403 184.884C178.361 184.66 178.32 184.435 178.278 184.211L178.254 184.081C178.128 183.399 178.001 182.713 177.755 182.061C177.449 181.232 177.083 181.045 176.232 181.269C175.643 181.426 175.098 181.702 174.575 182.008C171.626 183.711 168.565 185.181 165.414 186.473C165.384 186.486 165.353 186.499 165.322 186.512C165.136 186.592 164.946 186.674 164.735 186.667C164.444 186.66 164.235 186.533 164.115 186.264C163.996 185.988 164.071 185.734 164.28 185.547C164.436 185.413 164.623 185.308 164.817 185.226C168.05 183.8 171.178 182.158 174.269 180.44C174.821 180.134 175.404 179.888 176.023 179.739C177.419 179.41 178.465 179.918 179.062 181.217C179.46 182.095 179.627 183.034 179.793 183.974C179.81 184.073 179.828 184.172 179.846 184.271L179.906 184.597C180.191 186.146 180.477 187.698 180.958 189.205C181.115 189.706 181.294 190.206 181.585 190.654C181.735 190.878 181.891 191.087 182.138 191.206C182.362 191.318 182.548 191.281 182.66 191.042C182.81 190.728 182.862 190.393 182.884 190.042C182.974 188.638 182.81 187.249 182.63 185.861C182.332 183.531 181.929 181.217 181.473 178.917C181.01 176.581 181.107 174.251 181.503 171.922C182.601 165.539 184.445 159.357 186.565 153.243C187.271 151.203 187.964 149.157 188.657 147.112L188.658 147.11C189.005 146.085 189.352 145.061 189.701 144.037C189.742 143.918 189.781 143.798 189.82 143.679C189.859 143.559 189.898 143.44 189.939 143.321C189.763 143.264 189.687 143.327 189.61 143.391L189.596 143.403C186.58 145.635 183.213 147.188 179.741 148.547C178.487 149.039 177.21 149.465 175.904 149.771C175.381 149.89 175.127 150.144 174.986 150.674C173.34 156.742 171.495 162.754 169.652 168.763L169.651 168.765L169.651 168.767L169.65 168.768C169.353 169.737 169.056 170.706 168.759 171.676C168.296 173.191 167.759 174.677 167.139 176.133C165.982 178.865 164.272 181.157 161.808 182.86C161.241 183.248 160.689 183.658 160.203 184.144C159.755 184.599 159.375 185.099 159.151 185.711C158.986 186.167 159.046 186.256 159.531 186.316C160.188 186.398 160.83 186.54 161.443 186.794C162.936 187.414 163.735 188.519 163.742 190.154C163.75 191.259 163.75 192.371 163.742 193.476C163.712 196.432 163.511 199.381 163.085 202.308C162.995 202.935 162.861 203.555 162.592 204.13C162.003 205.369 160.756 205.458 159.979 204.324C159.673 203.883 159.531 203.376 159.419 202.853C159.057 201.192 158.948 199.503 158.839 197.82V197.82L158.839 197.82L158.83 197.672C158.628 194.566 158.337 191.468 157.986 188.377C157.926 187.817 157.919 187.802 157.351 187.854C156.116 187.973 154.894 188.186 153.672 188.4L153.672 188.4L153.672 188.4L153.672 188.4L153.671 188.4L153.671 188.4L153.669 188.401L153.667 188.401L153.666 188.401L153.664 188.401C153.278 188.469 152.892 188.536 152.506 188.601C149.034 189.176 145.54 189.37 142.024 189.235C141.615 189.218 141.206 189.201 140.797 189.184C139.731 189.14 138.666 189.096 137.597 189.064C134.984 188.974 132.401 188.608 129.818 188.198L129.741 188.186C126.176 187.622 122.603 187.057 119.097 186.197C115.386 185.293 111.698 184.278 108.115 182.942C108.02 182.906 107.94 182.874 107.871 182.846C107.676 182.767 107.57 182.725 107.487 182.752C107.387 182.784 107.319 182.917 107.171 183.21L107.114 183.322C106.431 184.675 105.762 186.036 105.093 187.397L105.092 187.399L105.092 187.399C104.68 188.238 104.267 189.078 103.852 189.915C103.157 191.311 102.403 192.67 101.597 193.998C101.171 194.7 100.723 195.387 100.119 195.947C99.5812 196.447 98.969 196.835 98.1925 196.5C97.3937 196.149 97.222 195.447 97.2444 194.663C97.2668 193.73 97.4907 192.834 97.7894 191.96C98.5504 189.73 99.4401 187.545 100.329 185.363C100.573 184.762 100.818 184.162 101.059 183.561L101.198 183.216C101.623 182.159 102.049 181.1 102.426 180.022C103.232 177.708 103.254 175.379 102.694 173.012C102.279 171.285 101.741 169.597 101.203 167.909L101.203 167.909L101.203 167.909C100.957 167.137 100.711 166.366 100.477 165.591C99.5289 162.433 98.7301 159.238 98.2746 155.968C98.0805 154.557 97.9536 153.138 97.9088 151.712C97.8416 149.651 97.4161 147.703 96.5053 145.836C95.6989 144.179 94.9001 142.514 94.4746 140.7C94.0789 138.99 93.9744 137.273 94.1983 135.519C94.6985 131.502 97.8491 129.262 101.127 128.926C101.619 128.874 102.03 128.732 102.426 128.449C106.524 125.567 111.049 123.715 116.006 122.946C118.149 122.61 120.306 122.476 122.471 122.722C126.346 123.17 129.034 125.253 130.669 128.747C131.826 131.204 132.087 133.802 131.833 136.474C131.632 138.251 131.176 139.968 130.221 141.715ZM175.71 148.166C175.936 148.197 176.094 148.155 176.245 148.113C176.273 148.106 176.301 148.098 176.329 148.091C177.658 147.748 178.935 147.255 180.204 146.732C184.124 145.12 187.886 143.246 190.895 140.133C192.172 138.804 193.239 137.348 193.956 135.653C195.285 132.495 194.195 128.986 191.328 127.105C189.925 126.179 188.402 125.5 186.744 125.246C184.124 124.85 181.488 124.917 178.86 125.291C176.001 125.694 173.358 126.717 170.835 128.075C166.37 130.472 162.981 133.891 160.965 138.602C159.778 141.379 158.956 144.261 158.314 147.203L158.201 147.725L158.201 147.725L158.201 147.725C157.246 152.113 156.292 156.497 155.007 160.798C154.447 162.672 153.768 164.501 152.879 166.24C150.871 170.16 147.75 172.668 143.413 173.587C141.755 173.938 140.068 174.057 138.381 174.08C133.326 174.139 128.324 173.676 123.367 172.691C120.821 172.183 118.358 171.414 116.073 170.175C113.109 168.562 110.892 166.285 109.936 162.97C109.354 160.97 108.995 158.909 108.898 156.819C108.869 156.163 108.837 155.508 108.805 154.853C108.669 152.058 108.532 149.262 108.562 146.456C108.562 146.421 108.565 146.385 108.568 146.348C108.579 146.205 108.591 146.053 108.443 145.911C108.291 145.911 108.18 145.999 108.068 146.088C108.02 146.126 107.972 146.164 107.92 146.195C107.36 146.546 106.756 146.807 106.091 146.912C104.404 147.165 102.888 146.695 101.552 145.71C96.789 142.216 96.3559 135.437 99.1929 131.398C99.2129 131.37 99.2363 131.344 99.2603 131.317L99.2603 131.317C99.353 131.212 99.4538 131.099 99.3945 130.868C97.6848 131.607 96.4605 132.749 95.9453 134.541C95.4227 136.355 95.4974 138.192 95.8781 140.021C96.244 141.797 97.0129 143.418 97.8118 145.023C98.8794 147.173 99.3647 149.435 99.4244 151.809C99.4617 153.257 99.611 154.706 99.8275 156.139C100.305 159.297 101.089 162.388 102.022 165.442C102.236 166.142 102.46 166.838 102.684 167.535L102.684 167.535C103.268 169.348 103.851 171.16 104.24 173.027C104.538 174.453 104.703 175.886 104.546 177.35C104.359 179.104 103.792 180.739 103.157 182.359C102.494 184.043 101.823 185.722 101.152 187.402L101.152 187.402C100.66 188.634 100.168 189.867 99.6782 191.102C99.3348 191.96 99.0436 192.834 98.8719 193.745L98.8606 193.805L98.8503 193.859C98.7871 194.188 98.7224 194.525 98.8495 194.879C99.1416 194.764 99.2898 194.564 99.4317 194.373L99.4317 194.373L99.4318 194.372C99.4639 194.329 99.4958 194.286 99.5289 194.245C100.07 193.56 100.504 192.799 100.935 192.045L101.052 191.841C102.139 189.935 103.091 187.964 104.044 185.99C104.342 185.374 104.64 184.758 104.942 184.144C105.322 183.36 105.725 182.591 106.144 181.829C106.569 181.06 106.927 180.956 107.779 181.269C108.324 181.471 108.869 181.672 109.414 181.852C112.348 182.815 115.304 183.681 118.305 184.383C125.682 186.1 133.125 187.436 140.733 187.638C143.771 187.72 146.802 187.772 149.818 187.384C151.362 187.185 152.896 186.948 154.431 186.711L154.431 186.711L154.432 186.711L154.432 186.711L154.433 186.711L154.433 186.711C155.37 186.566 156.307 186.422 157.247 186.286C157.538 186.242 157.643 186.107 157.695 185.838C157.919 184.592 158.621 183.621 159.516 182.762C160.076 182.232 160.689 181.777 161.308 181.329C163.16 179.97 164.511 178.208 165.474 176.14C166.213 174.557 166.796 172.922 167.303 171.257C167.683 170.012 168.065 168.766 168.447 167.52L168.449 167.517C169.921 162.717 171.395 157.914 172.746 153.078C172.895 152.541 173.046 152.007 173.199 151.469C173.299 151.117 173.399 150.763 173.5 150.406C173.169 150.299 172.875 150.347 172.589 150.394C172.514 150.406 172.44 150.419 172.365 150.428C170.917 150.615 169.461 150.704 168.035 150.338C164.511 149.428 162.615 147.427 162.204 144.254C161.861 141.574 162.159 138.916 163.354 136.452C164.645 133.772 166.713 132.107 169.804 131.92C174.037 131.666 176.135 134.227 176.785 137.012C176.964 137.781 177.031 138.572 177.046 139.364C177.098 141.947 176.561 144.448 175.964 146.934C175.936 147.036 175.906 147.135 175.876 147.233C175.783 147.535 175.693 147.827 175.71 148.166ZM156.508 144.522C156.762 144.575 157.015 144.634 157.329 144.709C157.109 145.701 156.893 146.69 156.678 147.678L156.678 147.679C155.725 152.053 154.781 156.383 153.514 160.634C153.036 162.224 152.431 163.769 151.707 165.27C149.617 169.578 146.168 171.914 141.427 172.392C137.955 172.743 134.476 172.609 131.005 172.295C127.72 172.004 124.465 171.504 121.269 170.66C119.53 170.197 117.872 169.518 116.319 168.607C113.55 166.972 111.713 164.65 111.078 161.432C110.668 159.357 110.392 157.274 110.317 155.161C110.29 154.405 110.261 153.649 110.232 152.893C110.14 150.486 110.049 148.081 110.026 145.672C110.011 144.642 110.071 143.664 110.436 142.656C111.668 139.259 111.175 136.004 109.264 132.973C108.212 131.301 106.703 130.128 104.845 129.419C104.759 129.386 104.673 129.354 104.588 129.322C104.502 129.291 104.415 129.259 104.329 129.225C104.317 129.221 104.307 129.21 104.292 129.194C104.28 129.181 104.264 129.163 104.24 129.143C104.281 128.998 104.398 128.934 104.515 128.87L104.515 128.87L104.516 128.87C104.549 128.852 104.582 128.834 104.613 128.814C108.764 126.172 113.288 124.656 118.186 124.223C119.739 124.081 121.292 124.059 122.837 124.313C125.876 124.805 127.921 126.582 129.22 129.307C129.944 130.83 130.31 132.443 130.34 134.123C130.385 136.579 130.124 138.968 128.929 141.178C128.586 141.82 128.168 142.193 127.421 142.395C123.367 143.477 119.552 145.105 116.148 147.598C115.356 148.181 114.64 148.83 114.042 149.614C113.751 149.995 113.512 150.406 113.378 150.868C112.975 152.235 113.729 153.31 115.147 153.407C115.842 153.452 116.514 153.34 117.171 153.123C119.418 152.376 121.426 151.182 123.337 149.801C125.681 148.099 127.712 146.075 129.444 143.761C129.668 143.455 129.922 143.321 130.288 143.261C136.402 142.305 142.517 142.26 148.639 143.201C151.267 143.604 153.895 144.015 156.508 144.522ZM175.545 139.856C175.575 139.117 175.486 138.378 175.351 137.654C175.038 135.914 174.187 134.518 172.514 133.832C170.79 133.122 167.759 133.167 165.967 135.243C165.325 135.989 164.772 136.78 164.429 137.706C163.735 139.535 163.496 141.447 163.593 143.373C163.742 146.352 165.34 148.323 168.796 148.995C170.219 149.271 171.619 149.065 173.02 148.859L173.021 148.859C173.208 148.832 173.395 148.804 173.582 148.778C173.903 148.733 174.008 148.517 174.075 148.24L174.122 148.057L174.193 147.781L174.193 147.781C174.312 147.322 174.431 146.863 174.538 146.404C175.06 144.246 175.486 142.081 175.545 139.856ZM108.331 134.399C109.13 135.862 109.548 137.423 109.555 139.199C109.496 140.61 109.182 142.074 108.436 143.418C107.674 144.754 106.569 145.59 104.964 145.456C104.038 145.381 103.172 145.045 102.411 144.478C100.664 143.164 99.5812 141.409 99.178 139.296C98.5658 136.094 99.2079 133.219 101.687 130.912C102.097 130.532 102.485 130.397 103.038 130.509C105.419 130.98 107.166 132.286 108.331 134.399ZM126.854 144.089C123.24 145.172 119.843 146.703 116.805 148.965C116.252 149.375 115.759 149.846 115.326 150.383C115.125 150.63 114.953 150.898 114.841 151.197C114.684 151.645 114.804 151.846 115.274 151.906C115.483 151.929 115.692 151.906 115.901 151.876C116.588 151.787 117.23 151.533 117.857 151.257C121.411 149.674 124.412 147.359 126.973 144.44C126.986 144.423 127 144.406 127.014 144.389L127.014 144.389C127.079 144.31 127.146 144.229 127.152 144.112C127.055 144.037 126.951 144.06 126.854 144.089ZM161.575 201.834C161.514 202.305 161.453 202.779 161.219 203.249C160.965 202.982 160.911 202.668 160.859 202.369C160.85 202.316 160.841 202.263 160.83 202.211C160.584 200.994 160.487 199.755 160.405 198.523C160.173 195.163 159.89 191.804 159.516 188.451C159.449 187.891 159.501 187.854 160.039 187.959C160.756 188.101 161.36 188.466 161.898 188.944C162.256 189.258 162.264 189.691 162.264 190.109L162.264 190.112C162.256 191.343 162.249 192.581 162.197 193.819C162.092 196.402 161.988 198.978 161.614 201.539C161.6 201.637 161.587 201.736 161.575 201.834Z"
    fill="#303030" />
  <path fill-rule="evenodd" clip-rule="evenodd"
    d="M63.8872 134.459C64.4621 134.802 64.925 135.25 65.0892 135.937C64.8503 136.049 64.6413 136.011 64.4322 135.952C62.9316 135.892 61.431 135.967 59.9304 136.079C56.2796 136.355 53.3157 137.885 51.061 140.782C50.0009 142.133 49.0826 143.574 48.2688 145.09C46.9101 147.621 45.7155 150.234 44.6106 152.892C43.9222 154.55 43.2012 156.193 42.4804 157.836C41.4425 160.201 40.4052 162.566 39.4667 164.971C39.4382 165.045 39.4083 165.119 39.3782 165.194C39.2902 165.412 39.2013 165.631 39.1457 165.86C39.0411 166.293 39.2278 166.666 39.5637 166.778C39.9221 166.897 40.2207 166.733 40.4148 166.285C40.7043 165.626 40.9911 164.965 41.278 164.304C41.8198 163.056 42.362 161.806 42.9233 160.566C43.7129 158.837 44.4551 157.085 45.1975 155.333C46.224 152.91 47.2508 150.487 48.4032 148.121C49.5678 145.724 50.8296 143.38 52.5616 141.327C54.0921 139.52 55.9735 138.289 58.3327 137.841C60.6097 137.415 62.9017 137.445 65.1937 137.49C65.6443 137.505 65.6784 137.76 65.7224 138.091L65.7238 138.102C66 140.342 65.9179 142.581 65.791 144.821C65.7206 145.996 65.6378 147.169 65.5551 148.342C65.4448 149.905 65.3346 151.468 65.2535 153.033C65.0686 156.652 65.0557 160.274 65.0427 163.895C65.0374 165.392 65.032 166.888 65.0145 168.383C65.0145 168.518 65.0145 168.652 65.0369 168.779C65.1041 169.182 65.3505 169.428 65.7014 169.451C66.0672 169.481 66.4032 169.212 66.4778 168.801C66.5099 168.603 66.509 168.399 66.508 168.195C66.5079 168.16 66.5077 168.126 66.5077 168.092C66.5167 167.053 66.5227 166.013 66.5286 164.974C66.5525 160.817 66.5764 156.662 66.7914 152.511C66.8751 150.928 66.9842 149.345 67.0934 147.762C67.1403 147.083 67.1871 146.404 67.2319 145.724C67.2472 145.483 67.2632 145.241 67.2791 144.999C67.4036 143.111 67.5283 141.219 67.3364 139.326C67.3184 139.149 67.3077 138.97 67.2969 138.79C67.2808 138.522 67.2647 138.254 67.2244 137.99C67.1647 137.617 67.314 137.512 67.6425 137.535C67.6836 137.535 67.7228 137.533 67.762 137.531C67.8012 137.529 67.8404 137.527 67.8814 137.527C71.8681 137.348 75.825 136.915 79.7296 136.116C81.6408 135.728 83.5222 135.198 85.2393 134.227C86.3965 133.57 87.4567 132.794 88.2779 131.734C90.0025 129.501 89.6964 126.545 87.5836 124.693C87.0685 124.238 86.4861 123.872 85.8814 123.544C84.5973 122.842 83.2161 122.409 81.8125 122.036C76.1012 120.505 70.2854 119.773 64.3725 119.751C60.4903 119.736 56.623 119.856 52.7931 120.602C50.2323 121.102 47.791 121.894 45.5662 123.275C44.0656 124.201 42.9233 125.425 42.3783 127.157C41.908 128.635 42.2664 129.86 43.4161 130.868C44.1179 131.487 44.9316 131.905 45.8275 132.182C46.9922 132.547 48.1942 132.712 49.4036 132.809C51.0051 132.939 52.6087 133.056 54.2122 133.172C55.5539 133.27 56.8956 133.368 58.2356 133.473C58.3893 133.485 58.5429 133.497 58.6965 133.508C59.8865 133.599 61.0744 133.689 62.2447 133.914C62.8196 134.026 63.387 134.153 63.8872 134.459ZM52.5243 122.207C56.2348 121.476 58.8851 121.259 63.8872 121.267C69.7702 121.222 75.8997 121.976 81.9096 123.633C83.2609 124.007 84.5749 124.477 85.7694 125.223C86.5907 125.731 87.3074 126.351 87.6433 127.291C88.1734 128.785 87.815 130.099 86.74 131.226C85.4857 132.532 83.9328 133.346 82.2306 133.906C80.1477 134.593 77.9975 134.989 75.825 135.28C73.2344 135.623 70.6437 135.944 68.0307 136.011C67.9427 136.014 67.8539 136.016 67.7647 136.017C67.5893 136.021 67.4127 136.024 67.2394 136.034C66.978 136.049 66.7839 135.967 66.6869 135.698C65.888 133.421 64.0739 132.615 61.8715 132.323C60.2139 132.105 58.546 131.99 56.8795 131.875C56.099 131.822 55.3188 131.768 54.5401 131.704C53.859 131.646 53.1779 131.6 52.4974 131.553C50.8879 131.443 49.2817 131.334 47.6865 131.077C46.6712 130.912 45.6782 130.651 44.8047 130.061C43.6774 129.3 43.4385 128.546 43.9238 127.284C44.3866 126.067 45.2751 125.223 46.3501 124.559C48.2614 123.387 50.3368 122.64 52.5243 122.207Z"
    fill="#303030" />
  <path
    d="M89.1962 165.673C89.2111 166.128 89.017 166.427 88.6885 166.524C88.3451 166.621 88.0241 166.487 87.8299 166.128C87.7478 165.972 87.6956 165.785 87.6508 165.606C85.9262 158.999 83.9477 152.466 82.2978 145.836C81.7304 143.559 81.1854 141.275 80.6404 138.998C80.618 138.893 80.5881 138.789 80.5807 138.684C80.5508 138.259 80.73 137.96 81.0659 137.893C81.4318 137.818 81.6856 137.997 81.8275 138.311C81.9245 138.527 81.9768 138.759 82.0365 138.99C83.5297 144.455 84.866 149.965 86.4264 155.415C87.3372 158.61 88.1808 161.821 89.0543 165.023C89.1066 165.262 89.1514 165.494 89.1962 165.673Z"
    fill="#303030" />
  <path fill-rule="evenodd" clip-rule="evenodd"
    d="M161.308 37.1497C161.307 37.1698 161.305 37.1896 161.302 37.2088L161.302 37.2089C161.296 37.2755 161.289 37.3365 161.301 37.3886C161.65 39.0359 161.737 40.7065 161.825 42.3798C161.837 42.6024 161.848 42.825 161.861 43.0476C161.995 45.5188 161.741 47.9452 161.346 50.3641C161.025 52.3201 160.256 54.1045 158.859 55.5678C158.822 55.6073 158.786 55.6487 158.75 55.6902C158.663 55.7898 158.577 55.8896 158.471 55.9634C157.202 56.8519 155.866 57.5163 154.275 57.6358C151.827 57.815 149.52 57.3446 147.258 56.4189C144.488 55.2766 141.927 53.776 139.493 52.0439C138.931 51.6467 138.419 51.1817 137.899 50.7107L137.899 50.7107L137.899 50.7106L137.899 50.7106C137.667 50.4999 137.434 50.288 137.194 50.0804C136.739 50.2968 136.358 50.6251 135.977 50.9534L135.977 50.9539C135.216 51.6108 134.403 52.1995 133.591 52.7875L133.591 52.7876C133.295 53.0015 133 53.2154 132.707 53.4325C132.462 53.6136 132.219 53.7956 131.975 53.9776L131.975 53.9776L131.975 53.9777L131.975 53.9777L131.975 53.9777C130.954 54.7406 129.933 55.5031 128.854 56.2023C128.665 56.3244 128.476 56.4457 128.286 56.5671C127.5 57.069 126.712 57.5723 125.973 58.1434C125.764 58.3077 125.532 58.4271 125.249 58.4271C124.674 58.4271 124.39 57.9792 124.629 57.4566C124.748 57.1953 124.965 57.0609 125.196 56.9265C126.727 55.9933 128.168 54.9257 129.564 53.8133C129.987 53.4754 130.435 53.1694 130.884 52.8629L130.884 52.8629L130.884 52.8629L130.884 52.8629C131.218 52.6344 131.553 52.4057 131.878 52.1634C132.325 51.8253 132.764 51.4764 133.202 51.1276L133.202 51.1276L133.202 51.1275L133.202 51.1274L133.202 51.1274C134.021 50.475 134.84 49.8232 135.716 49.2442C135.82 49.1696 135.917 49.0725 136.007 48.9829L136.007 48.9829L136.007 48.9829C136.134 48.856 136.163 48.744 136.022 48.5798C135.424 47.8631 135.073 47.012 134.738 46.1459C134.207 44.7872 134.29 43.4508 134.797 42.1368C135.208 41.0692 135.842 40.136 136.649 39.3148C137.91 38.0157 139.404 37.0302 140.986 36.1866C142.026 35.6312 143.103 35.1521 144.18 34.6731C144.45 34.5534 144.719 34.4336 144.988 34.3127C145.935 33.8873 146.915 33.5755 147.895 33.264L147.895 33.264L147.895 33.264L147.895 33.264L147.895 33.2639C148.291 33.1381 148.686 33.0124 149.079 32.8792C149.818 32.6254 150.625 32.5508 151.424 32.7449C152.536 33.0211 153.014 33.8423 152.7 34.9473C152.427 35.9053 151.817 36.6558 151.211 37.3997C151.138 37.4905 151.064 37.5813 150.991 37.6723C150.527 38.2646 149.981 38.7957 149.444 39.3174L149.444 39.3175L149.444 39.3175L149.37 39.3894C147.855 40.8602 146.339 42.316 144.742 43.6972C142.959 45.235 141.161 46.7654 139.363 48.2959L139.336 48.3185C139.162 48.4696 138.972 48.6057 138.777 48.7458L138.777 48.7458L138.777 48.7459L138.776 48.7462C138.663 48.8276 138.548 48.9102 138.433 48.9979C139.568 50.2671 140.904 51.2376 142.323 52.0887L142.645 52.2826C143.529 52.816 144.413 53.3488 145.339 53.8282C146.989 54.6719 148.691 55.3662 150.483 55.844C152.118 56.277 153.76 56.3293 155.403 55.8739C157.075 55.411 158.165 54.2986 158.919 52.798C159.591 51.4616 159.905 50.0132 160.069 48.5425C160.368 45.8921 160.487 43.2418 160.151 40.5765C160.107 40.2292 160.075 39.8801 160.043 39.5311C159.985 38.8822 159.926 38.2336 159.785 37.5976C159.737 37.3661 159.681 37.1364 159.625 36.9067L159.625 36.9065C159.569 36.6771 159.513 36.4477 159.464 36.2165C159.419 35.9776 159.263 35.8581 159.076 35.7461C157.957 35.0822 156.909 34.3205 155.855 33.5556L155.746 33.4765C154.932 32.8792 154.193 32.1924 153.566 31.4234C152.207 29.7362 152.334 27.8174 154.007 26.2795C155.567 24.8386 157.389 24.2488 159.472 24.8909C161.144 25.406 162.339 26.4512 162.719 28.2281C162.906 29.1165 162.779 30.0049 162.525 30.8859C162.208 32.0042 161.646 32.997 161.083 33.9924L161.025 34.0962L161.015 34.1124C160.629 34.798 160.627 34.8014 161.331 35.2384C162.813 36.1568 164.358 36.971 165.9 37.7834C166.339 38.0145 166.777 38.2455 167.214 38.4786C167.831 38.8067 168.451 39.1293 169.07 39.4519C170.228 40.0542 171.384 40.6563 172.522 41.2932C174.345 42.3072 176.161 43.337 177.976 44.3665L177.976 44.3666L177.976 44.3666L177.979 44.368C179.464 45.2102 180.949 46.0522 182.436 46.8851C183.925 47.7187 185.419 48.5425 186.913 49.3665L186.913 49.3667L186.915 49.3679L186.916 49.3681C188.605 50.2998 190.294 51.2317 191.978 52.1783C193.56 53.0742 195.113 54.0223 196.659 54.9705C200.631 57.4193 204.677 59.7486 208.843 61.8539C211.807 63.3546 214.86 64.6685 218.048 65.6242C218.164 65.6591 218.272 65.6921 218.37 65.7225L218.371 65.7227C218.905 65.8873 219.189 65.9749 219.348 65.871C219.528 65.753 219.548 65.3882 219.588 64.6091L219.594 64.5118C219.676 62.9514 220.086 61.4508 221.094 60.2563C222.468 58.6213 224.76 58.4272 226.223 60.4205C228.426 63.4143 226.186 66.6619 223.812 67.3562C223.013 67.5877 222.229 67.7444 221.408 67.737C221.027 67.7295 220.893 67.8714 220.908 68.2446C220.947 69.2883 220.973 70.3319 221 71.3755C221.009 71.728 221.018 72.0805 221.027 72.433C221.03 72.5134 221.038 72.5923 221.045 72.6712L221.045 72.6714C221.055 72.7755 221.064 72.8792 221.064 72.9854C221.071 73.8703 221.076 74.7559 221.08 75.6418C221.091 77.7081 221.102 79.7758 221.139 81.8398C221.18 84.0924 221.199 86.3449 221.218 88.5958L221.218 88.5978C221.229 90.0092 221.241 91.4199 221.258 92.8295C221.264 93.3126 221.266 93.7958 221.269 94.2785V94.2794V94.2804V94.282C221.273 95.0886 221.277 95.8941 221.296 96.6967C221.311 97.3987 221.316 98.1015 221.322 98.8045V98.8046V98.8047V98.8047C221.334 100.21 221.346 101.617 221.43 103.02C221.476 103.81 221.485 104.6 221.494 105.389C221.505 106.286 221.516 107.181 221.579 108.075C221.645 108.949 221.655 109.824 221.664 110.698V110.698C221.673 111.509 221.682 112.32 221.736 113.129C221.809 114.173 221.784 115.21 221.76 116.247L221.76 116.248C221.749 116.709 221.739 117.17 221.736 117.631C221.733 118.699 221.699 119.768 221.665 120.835V120.836V120.836V120.836C221.632 121.901 221.598 122.966 221.594 124.029C221.594 124.937 221.557 125.844 221.519 126.751C221.478 127.739 221.437 128.726 221.445 129.711C221.457 130.731 221.412 131.749 221.368 132.767L221.368 132.767C221.328 133.67 221.288 134.572 221.288 135.474C221.288 136.263 221.24 137.047 221.192 137.83L221.192 137.831C221.154 138.463 221.115 139.096 221.102 139.73C221.045 141.886 220.861 144.035 220.678 146.18C220.621 146.842 220.565 147.504 220.512 148.166C220.348 150.264 219.967 152.347 219.526 154.415C219.482 154.623 219.438 154.791 219.401 154.927C219.332 155.186 219.293 155.333 219.344 155.434C219.409 155.565 219.622 155.623 220.11 155.754L220.187 155.775C220.238 155.789 220.291 155.803 220.348 155.819C222.595 156.431 224.76 157.252 226.731 158.514C227.575 159.051 228.381 159.648 229.172 160.261C230.382 161.201 231.561 162.172 232.644 163.254C233.502 164.106 234.316 165.024 234.772 166.174C235.108 167.025 234.891 167.368 234.003 167.6C232.762 167.921 231.497 168.105 230.23 168.289L229.889 168.339C227.024 168.75 224.145 168.941 221.266 169.132C220.44 169.187 219.613 169.242 218.787 169.302C218.313 169.339 217.834 169.35 217.353 169.361H217.353L217.351 169.361L217.182 169.365L217.048 169.369C216.09 169.397 215.133 169.431 214.176 169.466C212.841 169.514 211.506 169.562 210.172 169.593C209.056 169.616 207.947 169.568 206.838 169.52L206.837 169.52C206.187 169.492 205.537 169.464 204.886 169.451C202.9 169.409 200.951 169.111 199.002 168.813C198.167 168.686 197.332 168.558 196.494 168.451C196.076 168.398 195.666 168.286 195.285 168.092C194.942 167.921 194.807 167.6 194.897 167.234C194.986 166.883 195.225 166.696 195.584 166.689C195.793 166.689 196.009 166.711 196.211 166.756C199.533 167.54 202.922 167.853 206.319 168.003C210.008 168.159 213.696 168.01 217.384 167.779L217.412 167.777L217.412 167.777C217.932 167.748 218.446 167.719 218.966 167.712C220.952 167.698 222.931 167.509 224.903 167.321L225.35 167.279C225.944 167.222 226.539 167.173 227.134 167.124C228.797 166.987 230.462 166.851 232.106 166.532C232.405 166.472 232.711 166.405 233.077 166.323C232.741 165.711 232.383 165.196 231.942 164.748C229.62 162.336 227.015 160.305 224.021 158.79C222.558 158.051 221.012 157.528 219.429 157.11C218.959 156.991 218.847 157.17 218.705 157.536C218.16 158.939 217.526 160.291 216.615 161.507C215.57 162.889 214.33 164.038 212.889 164.994C211.613 165.838 210.179 166.174 208.731 166.36C207.245 166.554 205.804 166.144 204.602 165.285C203.43 164.442 202.803 163.24 203.154 161.709C203.341 160.903 203.639 160.149 204.147 159.492C204.946 158.461 205.871 157.61 207.029 156.953C209.679 155.438 212.538 154.923 215.54 154.997C215.909 155.007 216.279 155.05 216.646 155.094L216.647 155.094L216.647 155.094L216.648 155.094C216.829 155.115 217.01 155.137 217.19 155.154C217.802 155.214 217.809 155.214 217.966 154.587C218.295 153.28 218.496 151.959 218.645 150.615C218.713 149.983 218.797 149.352 218.882 148.721L218.882 148.721C219.032 147.6 219.183 146.478 219.235 145.352C219.281 144.381 219.355 143.412 219.428 142.442L219.428 142.442C219.546 140.89 219.664 139.338 219.668 137.781C219.668 137.158 219.713 136.534 219.759 135.91C219.809 135.217 219.859 134.523 219.847 133.832C219.834 132.832 219.878 131.832 219.923 130.832C219.977 129.622 220.031 128.412 219.982 127.202C219.968 126.792 219.997 126.383 220.027 125.972V125.971V125.971V125.971C220.045 125.723 220.063 125.474 220.071 125.224C220.086 124.663 220.102 124.101 220.118 123.54C220.172 121.57 220.227 119.601 220.251 117.631L220.259 117.129C220.287 115.37 220.316 113.612 220.213 111.86C220.174 111.117 220.166 110.375 220.159 109.634C220.149 108.689 220.139 107.746 220.064 106.805C219.992 105.882 219.983 104.958 219.973 104.036C219.965 103.325 219.958 102.616 219.922 101.908C219.803 99.5889 219.789 97.2699 219.776 94.9531V94.9528V94.9516C219.769 93.7932 219.763 92.6353 219.743 91.4782C219.73 90.7326 219.738 89.9869 219.746 89.2413C219.756 88.2474 219.766 87.2535 219.728 86.2596C219.654 84.3497 219.643 82.4398 219.633 80.5299C219.624 78.9608 219.615 77.3916 219.571 75.8224C219.536 74.6173 219.536 73.4122 219.535 72.2078V72.207C219.534 70.8301 219.533 69.4542 219.482 68.0804C219.467 67.6101 219.317 67.4458 218.884 67.3562C215.532 66.647 212.434 65.2583 209.351 63.81C206.245 62.3467 203.266 60.6594 200.309 58.9274C199.01 58.1661 197.72 57.3909 196.43 56.6159L196.43 56.6158C194.874 55.6808 193.318 54.746 191.746 53.8357C190.134 52.9053 188.502 52.008 186.87 51.1108L186.869 51.1103L186.869 51.1103L186.869 51.1102C186.053 50.6613 185.236 50.2124 184.422 49.7594L184.409 49.7522L184.409 49.7521L184.409 49.7519L184.409 49.7518C182.435 48.6493 180.461 47.5469 178.494 46.4296L178.112 46.2122L178.112 46.2121L178.112 46.212C174.462 44.1341 170.809 42.0547 167.072 40.1285C166.051 39.6029 165.039 39.0626 164.029 38.523L164.029 38.5229L164.029 38.5228L164.028 38.5228C163.274 38.1197 162.52 37.7172 161.764 37.3214C161.731 37.3037 161.701 37.2846 161.67 37.2658C161.56 37.1972 161.455 37.1321 161.308 37.1497ZM137.583 47.7179L137.583 47.7179C137.646 47.6787 137.696 47.6476 137.739 47.6092C138.556 46.8974 139.39 46.2055 140.226 45.5124L140.226 45.5124C140.749 45.0786 141.273 44.6445 141.793 44.2048C142.726 43.4145 143.637 42.5955 144.546 41.7781L144.546 41.7781L144.546 41.778L144.546 41.778C145.106 41.2751 145.664 40.7726 146.227 40.2778C147.399 39.2476 148.504 38.1576 149.527 36.9929C150.102 36.3434 150.655 35.664 151.05 34.8875C151.312 34.3799 151.207 34.2007 150.647 34.2306C149.96 34.2679 149.281 34.3873 148.631 34.6038C146.608 35.2832 144.652 36.1045 142.718 37.0228C140.74 37.956 138.963 39.158 137.448 40.7258C136.641 41.5694 136.052 42.5474 135.984 43.7942C135.917 45.3172 136.395 46.6238 137.418 47.8257C137.482 47.7811 137.536 47.7473 137.583 47.7181L137.583 47.718L137.583 47.7179ZM211.239 156.923C213.225 156.416 215.189 156.423 217.287 156.789C216.816 157.954 216.361 159.059 215.682 160.074C214.972 161.134 214.173 162.135 213.166 162.896C210.986 164.539 208.626 165.472 205.886 164.247C204.871 163.799 204.438 162.881 204.714 161.799C205.065 160.432 206.013 159.514 207.066 158.715C208.298 157.782 209.746 157.304 211.239 156.923ZM161.316 29.3703C161.234 28.019 160.666 26.8992 159.36 26.399C158.262 25.9809 157.247 26.175 156.217 26.5632C155.336 26.8992 154.753 27.5487 154.35 28.3923C154.104 28.9149 154.119 29.4226 154.425 29.9004C154.723 30.3633 155.03 30.8187 155.433 31.2069C156.5 32.2297 157.71 33.0659 158.971 33.8349C159.307 34.0364 159.502 33.9767 159.666 33.6632C159.773 33.4619 159.884 33.2625 159.995 33.063L159.995 33.0629C160.395 32.3445 160.795 31.625 161.017 30.8187C161.159 30.3409 161.293 29.8556 161.316 29.3703ZM222.436 66.0424C222.201 66.0671 221.975 66.0908 221.826 66.1094C221.027 66.1244 220.99 66.0945 221.034 65.4226C221.117 64.2579 221.318 63.1157 221.803 62.0481C222.08 61.4433 222.408 60.8759 223.08 60.6072C223.424 60.4728 223.73 60.4653 224.073 60.6146C225.409 61.1895 225.977 62.8245 225.245 64.1534C224.67 65.2061 223.819 65.9004 222.58 66.0273C222.532 66.0323 222.484 66.0374 222.436 66.0424Z"
    fill="#303030" />
  <path
    d="M136.985 66.7664C136.962 66.3558 137.082 66.1468 137.179 65.9377C138.627 62.8991 140.105 59.8755 141.74 56.934C141.815 56.7996 141.882 56.6503 141.972 56.5234C142.181 56.2247 142.465 56.1277 142.801 56.277C143.107 56.4114 143.316 56.8145 143.196 57.1281C142.995 57.6432 142.756 58.1434 142.502 58.6287C141.218 61.0775 140.076 63.586 138.881 66.0796C138.709 66.4304 138.575 66.8187 138.276 67.0874C138.037 67.3114 137.754 67.4383 137.41 67.3039C137.082 67.177 137 66.9082 136.985 66.7664Z"
    fill="#303030" />
  <path
    d="M149.348 68.9315C149.572 65.8855 149.796 62.9664 150.401 60.0995C150.431 59.9726 150.438 59.8382 150.483 59.7113C150.632 59.2708 150.938 59.0618 151.297 59.1364C151.662 59.2186 151.842 59.5247 151.782 59.995C151.7 60.5923 151.55 61.1895 151.513 61.7943C151.364 64.1609 150.99 66.5052 150.886 68.8793C150.878 69.0361 150.886 69.2003 150.841 69.3496C150.729 69.7379 150.431 69.8872 150.057 69.8946C149.706 69.9021 149.415 69.6408 149.348 69.2675C149.326 69.1182 149.348 68.9614 149.348 68.9315Z"
    fill="#303030" />
  <path fill-rule="evenodd" clip-rule="evenodd"
    d="M97.9685 103.797C99.1406 104.625 100.126 105.648 100.985 106.813C100.832 106.977 100.694 106.994 100.547 107.012C100.507 107.016 100.466 107.021 100.425 107.029C96.9308 107.5 93.4293 107.462 89.9353 107C86.7474 106.574 83.7089 105.656 80.9615 103.909C78.8412 102.565 76.9971 100.93 75.728 98.7275C75.4219 98.2049 74.9963 98.0033 74.414 98.0481C73.4136 98.1153 72.4131 98.1974 71.4351 98.4139C71.1114 98.4836 70.7876 98.5666 70.4638 98.6497C70.3023 98.6911 70.1408 98.7325 69.9793 98.7723C69.9625 98.7756 69.9453 98.7794 69.9279 98.7833L69.9277 98.7834C69.7907 98.8139 69.6407 98.8473 69.5612 98.6752C69.3671 98.2721 69.6433 97.6823 70.0838 97.5777C70.4672 97.4884 70.8523 97.4028 71.2375 97.3172C71.625 97.231 72.0126 97.1449 72.3982 97.0551C77.1166 95.9353 81.8275 94.793 86.3891 93.1057C93.3771 90.5226 98.8719 86.1551 102.62 79.6673C103.224 78.6221 103.867 77.5844 104.583 76.6064C104.623 76.5521 104.665 76.4982 104.706 76.4442L104.706 76.4442C104.84 76.2681 104.975 76.0913 105.083 75.8971C105.457 75.2252 105.083 74.5981 104.314 74.5981C104.172 74.5981 104.025 74.6309 103.881 74.6632C103.844 74.6716 103.806 74.6799 103.769 74.6877C102.007 75.0161 100.246 75.3222 98.4613 75.5387C98.0518 75.5882 97.6422 75.6367 97.2326 75.6851C95.0503 75.9432 92.8678 76.2013 90.7118 76.6288C86.5907 77.4425 82.7906 78.9954 79.4982 81.6607C76.3327 84.2215 73.6002 87.163 71.465 90.642C71.4348 90.6911 71.4079 90.7435 71.3811 90.7958C71.3019 90.9502 71.2235 91.1032 71.0618 91.1646C70.9298 91.1457 70.8825 91.0633 70.8396 90.9887C70.8347 90.9801 70.8298 90.9716 70.8249 90.9633C70.8218 90.9581 70.8187 90.953 70.8155 90.9481C70.5827 90.5713 70.3515 90.1946 70.1205 89.8183L70.1204 89.8182L70.1204 89.818C69.6329 89.0238 69.1468 88.2318 68.6504 87.4467C68.4861 87.1854 68.4712 86.9763 68.6504 86.73C68.7422 86.6098 68.8274 86.4847 68.9122 86.3601L68.9122 86.3601L68.9123 86.36C69.0067 86.2213 69.1007 86.0833 69.2029 85.9535C70.084 84.8257 71.1315 83.8642 72.1757 82.9058L72.3609 82.7358C72.5031 82.6059 72.6453 82.4762 72.7876 82.3465L72.7877 82.3464L72.7879 82.3463C73.8555 81.3731 74.9208 80.402 75.9221 79.3612C77.572 77.659 78.9233 75.7553 79.9237 73.6051C81.9544 69.2526 82.6189 64.6984 81.9096 59.9502C81.8876 59.808 81.8673 59.6652 81.8471 59.5223L81.847 59.522C81.764 58.937 81.6805 58.349 81.4766 57.7851C81.2078 57.0236 80.6404 56.8071 79.9013 57.1356C79.785 57.1906 79.6687 57.2558 79.5565 57.3186L79.5565 57.3186L79.4832 57.3595C77.2286 58.6287 75.2725 60.2563 73.6077 62.2347C70.1286 66.3782 67.9337 71.1563 66.6272 76.3675C66.4641 77.0249 66.3149 77.6858 66.1606 78.3692C66.0889 78.6869 66.0161 79.0094 65.9403 79.3388C65.7823 79.029 65.7473 78.7566 65.7131 78.4901C65.7069 78.4419 65.7008 78.3939 65.6939 78.3459C65.2684 75.494 64.6189 72.7092 63.5438 70.0215C61.7072 65.4151 58.8628 61.5478 55.0776 58.36L55.0652 58.3499L55.0652 58.3499C54.9494 58.2557 54.8266 58.1558 54.6968 58.0837C54.1668 57.8 53.6292 58.0165 53.4277 58.5839C53.353 58.7955 53.3561 59.0176 53.3593 59.237L53.3593 59.2373C53.3599 59.2809 53.3605 59.3245 53.3605 59.3678C53.3754 62.0406 53.6442 64.6835 53.9652 67.3339C54.4505 71.3803 55.7122 75.1281 57.8175 78.6221C59.6765 81.698 61.7221 84.6321 64.0141 87.4019C65.0743 88.6785 66.127 89.9626 66.9258 91.4334C67.6798 92.837 68.0158 94.3376 68.083 95.9129C68.0979 96.3384 67.9635 96.54 67.5305 96.5922C66.9034 96.6744 66.2763 96.7864 65.6641 96.9357C65.2236 97.0477 64.9548 96.9282 64.7607 96.54C64.7237 96.4659 64.6781 96.3977 64.6328 96.3298L64.6328 96.3298L64.6328 96.3297L64.6327 96.3297C64.6049 96.288 64.5772 96.2465 64.5517 96.204C62.1776 92.3741 58.8329 89.7237 54.6894 87.9917C52.0764 86.9017 49.3588 86.3641 46.5666 86.058C42.7516 85.6399 38.9291 85.7519 35.1066 85.9834C34.1958 86.0431 33.8076 86.6702 34.0913 87.5363C34.2481 88.0215 34.5318 88.4396 34.8155 88.8502C36.3385 91.0377 38.0332 93.0983 39.8922 95.0095C41.6915 96.861 43.6923 98.4288 46.0141 99.5786C48.7093 100.915 51.5463 101.766 54.5027 102.259C56.511 102.587 58.5193 102.804 60.565 102.647C62.7674 102.475 64.8802 101.938 66.9706 101.281C67.0461 101.258 67.1205 101.228 67.1954 101.199L67.1955 101.199C67.4095 101.115 67.627 101.029 67.8814 101.079L67.886 101.118C67.8993 101.228 67.9105 101.321 67.9038 101.415C67.7694 103.207 67.5231 104.984 67.2543 106.753C67.1946 107.134 66.993 107.201 66.657 107.201C65.1639 107.194 63.7304 107.522 62.3194 107.985C61.6176 108.216 60.9532 108.537 60.3783 109.015C59.4302 109.807 59.1987 110.986 59.7661 112.084C60.1767 112.883 60.871 113.353 61.6923 113.622C62.5732 113.905 63.4915 113.98 64.4248 113.898C65.4326 113.816 66.2315 113.353 66.881 112.606C67.3439 112.084 67.6798 111.486 67.8889 110.829C68.0457 110.322 68.1875 109.814 68.292 109.299C68.3742 108.933 68.4936 108.754 68.9192 108.814C69.2553 108.859 69.5922 108.898 69.9291 108.937L69.9293 108.937L69.9294 108.937L69.9296 108.937L69.9297 108.937C70.6403 109.018 71.3509 109.1 72.0548 109.247C72.1672 109.271 72.2796 109.294 72.3919 109.317L72.392 109.317C73.3391 109.515 74.2812 109.711 75.1755 110.098C76.8105 110.807 77.572 111.964 77.5571 113.741C77.5571 114.129 77.5197 114.525 77.4749 114.921C77.2212 117.227 76.7362 119.495 76.2512 121.764L76.2506 121.767C75.9295 123.267 75.5637 124.753 74.9366 126.157C74.399 127.359 73.5106 128.016 72.1593 127.986C72.0896 127.981 72.02 127.983 71.9503 127.984C71.929 127.985 71.9076 127.985 71.8863 127.986C71.8728 127.986 71.8592 127.986 71.8457 127.986C71.174 127.972 70.5017 127.965 69.8293 127.958C67.9684 127.938 66.1067 127.919 64.253 127.754C63.3572 127.68 62.4762 127.53 61.6102 127.277C60.5724 126.978 59.9752 126.328 59.8109 125.223C59.4747 122.975 59.1833 120.718 58.8916 118.459L58.8916 118.459L58.8915 118.458L58.8914 118.458C58.788 117.657 58.6846 116.856 58.5791 116.055C58.3849 114.562 58.2207 113.069 58.1087 111.569C58.0714 111.083 57.8175 110.829 57.4517 110.829C57.0784 110.822 56.8321 111.091 56.8022 111.569C56.7798 111.934 56.8022 112.308 56.8246 112.673C57.0187 115.861 57.4293 119.027 57.8698 122.185C57.918 122.528 57.962 122.873 58.0061 123.217L58.0062 123.217L58.0062 123.217C58.1192 124.1 58.2322 124.983 58.4148 125.858C58.6836 127.112 59.4078 127.986 60.5874 128.486C61.1771 128.74 61.7819 128.912 62.409 129.009C65.8134 129.546 69.2477 129.509 72.6744 129.457C74.1303 129.434 75.2128 128.658 75.9669 127.426C76.4073 126.694 76.691 125.903 76.9449 125.097C77.6093 122.944 78.0235 120.734 78.4373 118.525L78.4373 118.525L78.5351 118.004C78.8039 116.578 79.0428 115.145 79.0652 113.689C79.11 111.3 77.9528 109.702 75.8175 108.739C75.2128 108.47 74.5857 108.276 73.9436 108.119C72.3758 107.739 70.7931 107.462 69.1879 107.35C68.7848 107.321 68.6952 107.171 68.7624 106.805C68.8744 106.208 68.9714 105.611 69.0386 105.006C69.1954 103.67 69.3372 102.333 69.4716 100.997L69.4753 100.952C69.4951 100.708 69.5133 100.483 69.83 100.385C71.2261 99.9668 72.6371 99.6607 74.0929 99.5711C74.4438 99.5487 74.6081 99.7129 74.7798 99.9742C76.8329 103.065 79.6699 105.185 83.0295 106.649C85.5828 107.761 88.2779 108.373 91.0552 108.627C94.0564 108.903 97.0577 108.941 100.059 108.597C100.768 108.515 101.477 108.425 102.172 108.291C102.963 108.134 103.232 107.53 102.866 106.805C102.806 106.686 102.732 106.574 102.65 106.469C101.485 104.954 100.223 103.55 98.6554 102.438C94.2953 99.3471 89.4874 97.5105 84.1419 97.0925C82.0888 96.9282 80.088 97.1597 78.1095 97.6897C77.8781 97.7494 77.6616 97.8316 77.4824 98.0033C77.251 98.2273 77.1763 98.5035 77.2883 98.8021C77.4003 99.1008 77.6616 99.2426 77.9752 99.2351C78.1539 99.2277 78.3327 99.1756 78.5115 99.1235L78.5127 99.1232C81.4019 98.3019 84.2987 98.4886 87.2103 99.0261C91.1821 99.7652 94.706 101.49 97.9685 103.797ZM102.221 76.4819C102.388 76.4452 102.564 76.4065 102.739 76.4944C102.737 76.5129 102.737 76.5315 102.738 76.5491C102.739 76.5883 102.74 76.6231 102.709 76.6437C102.368 77.1858 102.037 77.7349 101.707 78.2842L101.707 78.2843L101.707 78.2844C100.907 79.611 100.108 80.9382 99.163 82.1684C95.7138 86.6404 91.2344 89.6789 85.9785 91.6424C81.4243 93.3372 76.706 94.472 71.9876 95.5918C71.3978 95.7337 70.808 95.8755 70.2182 96.0025C69.6359 96.1294 69.6284 96.1219 69.5538 95.5022C69.5331 95.3245 69.517 95.1468 69.501 94.9696C69.4767 94.7 69.4524 94.4316 69.4119 94.1659C69.0983 92.0157 68.0905 90.1791 66.7914 88.4844C66.1815 87.6868 65.5521 86.9055 64.9225 86.1239L64.9225 86.1238C63.949 84.9153 62.9752 83.7065 62.073 82.4371C60.6097 80.3691 59.2883 78.2115 58.0863 75.9792C56.9217 73.8216 56.1751 71.5296 55.7645 69.1182C55.3389 66.6246 55.0328 64.1086 54.9134 61.5777C54.9034 61.3338 54.9067 61.0899 54.9101 60.846C54.9117 60.7241 54.9134 60.6022 54.9134 60.4802C55.1372 60.4056 55.2463 60.5339 55.3492 60.6549C55.3802 60.6913 55.4106 60.7271 55.4434 60.7565C59.4451 64.3699 61.8864 68.9091 63.2974 74.0531C63.8308 76.0064 64.1263 78.004 64.422 80.003L64.4222 80.0045C64.47 80.3276 64.5178 80.6507 64.5666 80.9738C64.6626 81.6099 64.7721 82.2427 64.8815 82.8743C64.9339 83.1767 64.9862 83.4788 65.037 83.781C65.0668 83.9303 65.1041 84.0871 65.1564 84.2364C65.2609 84.535 65.4774 84.7217 65.7985 84.7441C66.1568 84.7739 66.4107 84.6022 66.5674 84.2961C66.7018 84.0348 66.7616 83.7511 66.8063 83.4599C66.8752 83.0501 66.9425 82.64 67.0097 82.2298L67.0098 82.2294L67.0098 82.2291L67.0099 82.229C67.3433 80.1953 67.677 78.1599 68.2174 76.1659C69.5388 71.2609 71.6442 66.7664 74.9963 62.8991C76.2879 61.4135 77.7661 60.1517 79.4384 59.114C79.4836 59.086 79.5281 59.0554 79.573 59.0244L79.5731 59.0244C79.7436 58.9071 79.9203 58.7855 80.1626 58.7855C80.3619 59.3109 80.4147 59.8608 80.4671 60.4074L80.4671 60.4075L80.4671 60.4079L80.4672 60.4082C80.4795 60.537 80.4919 60.6657 80.5061 60.7938C81.2526 67.7669 79.3339 73.8365 74.3244 78.8312C73.5045 79.6463 72.6523 80.4291 71.7991 81.2128L71.7991 81.2129L71.799 81.213L71.7988 81.2131C71.2925 81.6782 70.7858 82.1436 70.2854 82.6163C69.1506 83.6839 68.0979 84.8112 67.2468 86.1402C66.8213 86.8121 66.8213 87.3496 67.2618 88.0141C67.8939 88.9703 68.4908 89.95 69.0865 90.9277L69.0865 90.9278L69.0876 90.9295C69.3147 91.3023 69.5416 91.6748 69.7703 92.0456C69.8337 92.1464 69.8935 92.249 69.9532 92.3516C70.0129 92.4543 70.0726 92.557 70.1361 92.6578C70.6886 93.5313 71.4053 93.5387 71.9951 92.6802C72.173 92.4245 72.3343 92.1522 72.4945 91.8818L72.4945 91.8818L72.4945 91.8817C72.5494 91.789 72.6042 91.6966 72.6595 91.6051C74.7723 88.1111 77.4973 85.1621 80.6927 82.6387C83.582 80.3542 86.8968 78.9805 90.4729 78.204C92.3415 77.7995 94.2406 77.5646 96.1369 77.33L96.1369 77.33C96.7257 77.2572 97.3141 77.1844 97.9013 77.1066C98.2129 77.0653 98.5245 77.0256 98.8361 76.9858C99.9352 76.8455 101.033 76.7054 102.127 76.5018C102.158 76.4958 102.189 76.4889 102.221 76.4819ZM35.8308 87.4019C35.869 87.7199 35.9993 87.8916 36.1201 88.0509C36.1411 88.0785 36.1618 88.1058 36.1817 88.1335C37.5778 90.1194 39.1307 91.9859 40.7956 93.7478C43.1921 96.2862 46.0216 98.1451 49.3066 99.3322C51.5762 100.153 53.9055 100.669 56.2871 100.975C58.4671 101.258 60.6471 101.251 62.8196 100.81C64.3725 100.497 65.8806 100.034 67.3812 99.5487C67.7215 99.4402 67.8914 99.3861 67.978 99.2699C68.0643 99.1542 68.0681 98.9768 68.0755 98.6229C68.0755 98.5798 68.0795 98.5354 68.0836 98.4903C68.098 98.3321 68.1129 98.1668 67.9561 98.0331L67.9459 98.0348L67.9457 98.0348C67.3295 98.1388 66.7133 98.2428 66.0971 98.3616C64.5367 98.6453 64.3128 98.5483 63.4393 97.197L63.4369 97.1931L63.4368 97.193C63.3406 97.0375 63.2443 96.8821 63.1406 96.7341C62.2671 95.4425 61.3265 94.2107 60.1693 93.1505C57.5712 90.754 54.4953 89.2459 51.1207 88.3426C48.1792 87.5587 45.1481 87.3496 42.117 87.2526C40.7623 87.204 39.4108 87.2628 38.0461 87.3222L38.0459 87.3222C37.3123 87.3541 36.5747 87.3862 35.8308 87.4019ZM66.3061 110.755C65.7835 111.837 65.0146 112.539 63.7678 112.39C63.2302 112.412 62.7599 112.352 62.2895 112.226C61.9312 112.121 61.6027 111.964 61.3339 111.695C60.8039 111.158 60.8412 110.531 61.4384 110.068C61.6251 109.926 61.8267 109.799 62.0432 109.702C63.3796 109.105 64.7757 108.761 66.2389 108.702C66.8362 108.679 66.8885 108.746 66.7616 109.329C66.657 109.814 66.5226 110.299 66.3061 110.755Z"
    fill="#303030" />
  <path fill-rule="evenodd" clip-rule="evenodd"
    d="M114.168 230.001C114.168 218.495 123.495 209.168 135.001 209.168C146.507 209.168 155.834 218.495 155.834 230.001C155.834 241.505 146.507 250.834 135.001 250.834C123.495 250.834 114.168 241.505 114.168 230.001ZM134.334 238.111L145.499 224.612C146.318 223.624 146.111 222.214 145.037 221.46C143.959 220.706 142.427 220.9 141.61 221.887L132.361 233.067L128.369 228.374C127.538 227.393 125.998 227.222 124.937 227.989C123.874 228.754 123.688 230.169 124.519 231.146L130.464 238.136C130.929 238.68 131.637 239 132.388 239H132.405C133.163 238.995 133.874 238.667 134.334 238.111Z"
    fill="#27AE60" />
</svg>
  